<svg id="レイヤー_1" data-name="レイヤー 1" xmlns="http://www.w3.org/2000/svg" viewBox="0 0 130 200"><defs><style>.cls-1{fill:#3f9550;}.cls-2{fill:#f1f3f6;}.cls-3{fill:#eee;}.cls-4{fill:#b7272d;}.cls-5{fill:#f1ad00;}.cls-6{fill:#00578a;}.cls-7{fill:#087741;}</style></defs><title>アートボード 26</title><rect class="cls-1" width="130" height="200" rx="11.22" ry="11.22"/><rect class="cls-2" x="5.6" y="5.62" width="118.79" height="188.76" rx="11.22" ry="11.22"/><path class="cls-1" d="M17.93,147.16l-.09.75H16.19L15.84,149l.23,0h.19a1.49,1.49,0,0,1,1.16.46,1.82,1.82,0,0,1,.42,1.27,2,2,0,0,1-.52,1.41,1.83,1.83,0,0,1-1.37.54,2,2,0,0,1-1.79-1l.55-.44a2.25,2.25,0,0,0,.58.58,1.23,1.23,0,0,0,.65.17,1.06,1.06,0,0,0,.82-.35,1.32,1.32,0,0,0,.3-.92A1,1,0,0,0,16,149.56a2.45,2.45,0,0,0-1.16.38l.89-2.78Z"/><path class="cls-1" d="M22.57,149.42a5.19,5.19,0,0,1-.2,1.39,3.43,3.43,0,0,1-.51,1.12,1.61,1.61,0,0,1-1.34.69,1.45,1.45,0,0,1-1.24-.63,2.89,2.89,0,0,1-.46-1.73,4,4,0,0,1,.61-2.26,1.76,1.76,0,0,1,1.49-.92,1.39,1.39,0,0,1,1.2.64A2.88,2.88,0,0,1,22.57,149.42Zm-.77,0a2.33,2.33,0,0,0-.24-1.16.71.71,0,0,0-.64-.42c-.37,0-.69.25-.94.74a3.84,3.84,0,0,0-.39,1.81,2.25,2.25,0,0,0,.24,1.14.72.72,0,0,0,.66.41,1,1,0,0,0,.87-.59,3,3,0,0,0,.31-.87A5,5,0,0,0,21.8,149.38Z"/><path class="cls-1" d="M24.61,146.66l-.48,3.88,1.38-1.28h1l-1.71,1.5,1.37,1.78h-.92L24.08,151l-.2,1.56h-.76l.72-5.88Z"/><path class="cls-1" d="M29.61,149.58l-.1.78a1.76,1.76,0,0,0-.45-.43.91.91,0,0,0-.5-.13.93.93,0,0,0-.72.32,1.21,1.21,0,0,0-.28.83,1.12,1.12,0,0,0,.26.77.91.91,0,0,0,.69.29,1.34,1.34,0,0,0,.84-.36l-.1.82a2.24,2.24,0,0,1-.85.18,1.59,1.59,0,0,1-1.17-.47,1.74,1.74,0,0,1-.44-1.22,1.82,1.82,0,0,1,.48-1.29,1.61,1.61,0,0,1,1.21-.52A1.78,1.78,0,0,1,29.61,149.58Z"/><path class="cls-1" d="M33.66,149.26l-.4,3.28h-.77l0-.35a1.54,1.54,0,0,1-1,.43,1.37,1.37,0,0,1-1.05-.44,1.61,1.61,0,0,1-.41-1.15,1.92,1.92,0,0,1,.46-1.33,1.58,1.58,0,0,1,1.22-.52,1.34,1.34,0,0,1,.6.12,1.45,1.45,0,0,1,.51.39l0-.43Zm-.93,1.55a1,1,0,0,0-.25-.71.85.85,0,0,0-.65-.27.91.91,0,0,0-.72.33,1.23,1.23,0,0,0-.29.84,1.05,1.05,0,0,0,.24.71.8.8,0,0,0,.63.27,1,1,0,0,0,.73-.34A1.26,1.26,0,0,0,32.73,150.81Z"/><path class="cls-1" d="M35.82,146.66l-.72,5.88h-.77l.73-5.88Z"/><path class="cls-1" d="M39.48,146.82l-3.32,7.28-.54-.24,3.32-7.28Z"/><path class="cls-1" d="M42.34,147.16l-.66,5.38h-.8l.58-4.63H40.4l.36-.75Z"/><path class="cls-1" d="M47.82,149.42a4.82,4.82,0,0,1-.2,1.39,3.43,3.43,0,0,1-.51,1.12,1.6,1.6,0,0,1-1.33.69,1.45,1.45,0,0,1-1.25-.63,2.89,2.89,0,0,1-.46-1.73,4,4,0,0,1,.61-2.26,1.77,1.77,0,0,1,1.49-.92,1.38,1.38,0,0,1,1.2.64A2.88,2.88,0,0,1,47.82,149.42Zm-.77,0a2.33,2.33,0,0,0-.24-1.16.71.71,0,0,0-.64-.42c-.37,0-.69.25-.94.74a3.84,3.84,0,0,0-.39,1.81,2.25,2.25,0,0,0,.24,1.14.72.72,0,0,0,.66.41,1,1,0,0,0,.87-.59,3,3,0,0,0,.31-.87A4.45,4.45,0,0,0,47.05,149.38Z"/><path class="cls-1" d="M52.21,149.42a5.17,5.17,0,0,1-.19,1.39,3.9,3.9,0,0,1-.51,1.12,1.62,1.62,0,0,1-1.34.69,1.47,1.47,0,0,1-1.25-.63,3,3,0,0,1-.46-1.73,4,4,0,0,1,.61-2.26,1.79,1.79,0,0,1,1.49-.92,1.4,1.4,0,0,1,1.21.64A3,3,0,0,1,52.21,149.42Zm-.77,0a2.46,2.46,0,0,0-.23-1.16.72.72,0,0,0-.65-.42c-.37,0-.68.25-.94.74a3.85,3.85,0,0,0-.38,1.81,2.37,2.37,0,0,0,.23,1.14.72.72,0,0,0,.66.41,1,1,0,0,0,.87-.59,2.74,2.74,0,0,0,.31-.87A4.45,4.45,0,0,0,51.44,149.38Z"/><path class="cls-1" d="M56.45,149.26l-.4,3.31c0,.19-.06.37-.09.51a2.14,2.14,0,0,1-.1.37,1.54,1.54,0,0,1-.37.53,1.72,1.72,0,0,1-1.2.42A1.86,1.86,0,0,1,53,154a1.15,1.15,0,0,1-.34-.46,1.91,1.91,0,0,1-.1-.66h.75a1,1,0,0,0,.23.67.89.89,0,0,0,.65.21,1,1,0,0,0,.72-.25,1.38,1.38,0,0,0,.31-.8l.06-.45a1.66,1.66,0,0,1-1,.37,1.45,1.45,0,0,1-1.11-.46,1.63,1.63,0,0,1-.43-1.16,1.8,1.8,0,0,1,.5-1.3,1.69,1.69,0,0,1,1.27-.52,1.38,1.38,0,0,1,.59.11,1.54,1.54,0,0,1,.51.38l0-.41Zm-.88,1.56a1,1,0,0,0-1.74-.66,1.19,1.19,0,0,0-.3.83,1,1,0,0,0,.26.72.9.9,0,0,0,.69.27,1,1,0,0,0,.78-.33A1.2,1.2,0,0,0,55.57,150.82Z"/><path class="cls-1" d="M76.21,147.16l-.66,5.38h-.79l.57-4.63H74.27l.37-.75Z"/><path class="cls-1" d="M81.45,147.16l-.09.75H79.71L79.36,149l.23,0h.19a1.5,1.5,0,0,1,1.16.46,1.82,1.82,0,0,1,.42,1.27,1.92,1.92,0,0,1-.53,1.41,1.79,1.79,0,0,1-1.36.54,2,2,0,0,1-1.79-1l.55-.44a2.11,2.11,0,0,0,.58.58,1.22,1.22,0,0,0,.64.17,1,1,0,0,0,.82-.35,1.28,1.28,0,0,0,.31-.92,1.1,1.1,0,0,0-.29-.79,1.08,1.08,0,0,0-.79-.29,2.42,2.42,0,0,0-1.16.38l.89-2.78Z"/><path class="cls-1" d="M86.09,149.42a5.19,5.19,0,0,1-.2,1.39,3.43,3.43,0,0,1-.51,1.12,1.62,1.62,0,0,1-1.34.69,1.48,1.48,0,0,1-1.25-.63,3,3,0,0,1-.45-1.73,4,4,0,0,1,.6-2.26,1.79,1.79,0,0,1,1.5-.92,1.41,1.41,0,0,1,1.2.64A2.88,2.88,0,0,1,86.09,149.42Zm-.78,0a2.34,2.34,0,0,0-.23-1.16.71.71,0,0,0-.64-.42c-.38,0-.69.25-1,.74a4,4,0,0,0-.38,1.81,2.25,2.25,0,0,0,.24,1.14.72.72,0,0,0,.65.41,1,1,0,0,0,.88-.59,3,3,0,0,0,.31-.87A5,5,0,0,0,85.31,149.38Z"/><path class="cls-1" d="M90.32,149.26l-.4,3.31a5,5,0,0,1-.08.51,3.46,3.46,0,0,1-.11.37,1.39,1.39,0,0,1-.36.53,1.75,1.75,0,0,1-1.21.42,1.84,1.84,0,0,1-1.24-.41,1.09,1.09,0,0,1-.35-.46,1.94,1.94,0,0,1-.09-.66h.74a1,1,0,0,0,.24.67.87.87,0,0,0,.64.21.94.94,0,0,0,.72-.25,1.38,1.38,0,0,0,.32-.8l0-.45a1.62,1.62,0,0,1-1,.37,1.43,1.43,0,0,1-1.1-.46,1.64,1.64,0,0,1-.44-1.16,1.77,1.77,0,0,1,.51-1.3,1.69,1.69,0,0,1,1.27-.52,1.41,1.41,0,0,1,.59.11,1.77,1.77,0,0,1,.51.38l0-.41Zm-.88,1.56a.93.93,0,0,0-1-1,1,1,0,0,0-.76.33,1.19,1.19,0,0,0-.29.83,1,1,0,0,0,.25.72.93.93,0,0,0,.69.27,1,1,0,0,0,.78-.33A1.16,1.16,0,0,0,89.44,150.82Z"/><path class="cls-1" d="M94.3,146.82,91,154.1l-.53-.24,3.31-7.28Z"/><path class="cls-1" d="M97.16,147.16l-.66,5.38h-.79l.57-4.63H95.22l.36-.75Z"/><path class="cls-1" d="M100,149.26l0,.35a1.58,1.58,0,0,1,1-.43,1.42,1.42,0,0,1,1.09.46,1.59,1.59,0,0,1,.43,1.15,1.81,1.81,0,0,1-.49,1.3,1.63,1.63,0,0,1-1.23.53,1.4,1.4,0,0,1-.62-.12,1.88,1.88,0,0,1-.53-.43l-.29,2.35h-.76l.63-5.16Zm1.75,1.56a1,1,0,0,0-.25-.71.79.79,0,0,0-.63-.28,1,1,0,0,0-.78.34,1.17,1.17,0,0,0-.32.84.94.94,0,0,0,.27.7.9.9,0,0,0,.68.27.94.94,0,0,0,.74-.34A1.18,1.18,0,0,0,101.72,150.82Z"/><path class="cls-1" d="M106.77,150.87a1.72,1.72,0,0,1-.52,1.27,1.76,1.76,0,0,1-1.28.51,1.78,1.78,0,0,1-1.3-.49,1.61,1.61,0,0,1-.51-1.23,1.7,1.7,0,0,1,.53-1.27,1.82,1.82,0,0,1,1.32-.51,1.74,1.74,0,0,1,1.27.48A1.64,1.64,0,0,1,106.77,150.87Zm-.77,0a1.05,1.05,0,0,0-.28-.75.94.94,0,0,0-.72-.28,1,1,0,0,0-.76.31,1.17,1.17,0,0,0-.31.81,1.07,1.07,0,0,0,.29.78,1,1,0,0,0,.74.31.94.94,0,0,0,.74-.33A1.21,1.21,0,0,0,106,150.83Z"/><path class="cls-1" d="M108.6,149.26l-.4,3.28h-.77l.41-3.28Zm.24-1.56a.41.41,0,0,1-.7.29.42.42,0,0,1-.13-.31.41.41,0,0,1,.41-.41.43.43,0,0,1,.42.43Z"/><path class="cls-1" d="M110.44,149.26l0,.3a1.44,1.44,0,0,1,.92-.38,1.1,1.1,0,0,1,.77.27,1,1,0,0,1,.28.73c0,.17,0,.37,0,.6l-.22,1.76h-.77l.24-1.93a1.37,1.37,0,0,0,0-.19v-.15c0-.3-.16-.44-.48-.44a.75.75,0,0,0-.5.18.86.86,0,0,0-.26.34,1.34,1.34,0,0,0-.08.26,2.94,2.94,0,0,0-.05.35l-.2,1.58h-.76l.4-3.28Z"/><path class="cls-1" d="M114.33,150l-.32,2.56h-.77l.32-2.56h-.43l.08-.72h.44l.18-1.52h.77l-.19,1.52h.71L115,150Z"/><ellipse class="cls-1" cx="19.05" cy="19.1" rx="7.84" ry="7.87"/><path class="cls-1" d="M34.72,22l-1.31,2.53H31.68L37.62,13l3.7,11.53H39.66L38.88,22Zm.69-1.38h3l-1.16-3.83Z"/><path class="cls-1" d="M43.91,13.73h2.17a4.07,4.07,0,0,1,2.16.47,2.65,2.65,0,0,1,1,1.08,3.48,3.48,0,0,1,.35,1.51,3.36,3.36,0,0,1-.65,2,3.49,3.49,0,0,1-3,1.3H44.71l-.54,4.36H42.58Zm1.4,1.48-.43,3.51h1a2.07,2.07,0,0,0,1.51-.51,1.92,1.92,0,0,0,.52-1.46c0-1-.65-1.54-2-1.54Z"/><path class="cls-1" d="M51.84,13.73H54a4.12,4.12,0,0,1,2.16.47,2.65,2.65,0,0,1,1,1.08,3.48,3.48,0,0,1,.35,1.51,3.36,3.36,0,0,1-.65,2,3.5,3.5,0,0,1-3,1.3H52.64l-.53,4.36H50.52Zm1.41,1.48-.43,3.51h1a2.09,2.09,0,0,0,1.51-.51,1.92,1.92,0,0,0,.52-1.46c0-1-.65-1.54-2-1.54Z"/><path class="cls-1" d="M61.36,13.73,60.22,23h3l-.18,1.49H58.45l1.32-10.76Z"/><path class="cls-1" d="M71.43,13.73l-.18,1.48H67.31L67,18h3.94l-.17,1.38H66.8L66.35,23h3.94l-.18,1.49H64.58L65.9,13.73Z"/><path class="cls-2" d="M21,13.73,19.67,24.49H18.08l1.15-9.28H17.11l.73-1.48Z"/><ellipse class="cls-1" cx="23.3" cy="161.84" rx="5.6" ry="5.62"/><path class="cls-3" d="M19.64,162.44v-1.26h3v-2.93H24v2.93h3v1.26H24v3H22.66v-3Z"/><ellipse class="cls-4" cx="23.3" cy="176.75" rx="5.6" ry="5.62"/><ellipse class="cls-5" cx="23.3" cy="179" rx="3.36" ry="3.37"/><ellipse class="cls-6" cx="96.12" cy="176.75" rx="5.6" ry="5.62"/><ellipse class="cls-2" cx="96.12" cy="178.62" rx="1.87" ry="1.87"/><path class="cls-2" d="M94.25,173.06a1.24,1.24,0,1,1-1.76,1.76"/><path class="cls-2" d="M99.75,174.82A1.24,1.24,0,0,1,98,173.06"/><path class="cls-1" d="M111.66,180.73l-.18,1.48h-7l4.29-4.73,1.06-1.2a8.81,8.81,0,0,0,.55-.72,2.1,2.1,0,0,0,.29-1.12,2,2,0,0,0-.12-.71,1.53,1.53,0,0,0-.35-.54,1.46,1.46,0,0,0-.55-.34,2.37,2.37,0,0,0-1.52,0,1.38,1.38,0,0,0-.58.4,2.05,2.05,0,0,0-.37.69,5.05,5.05,0,0,0-.19,1h-1.51a4.67,4.67,0,0,1,.67-2.36,3.16,3.16,0,0,1,2.81-1.31,3.24,3.24,0,0,1,2.36.86,3,3,0,0,1,.89,2.27,3.3,3.3,0,0,1-.37,1.61,5.62,5.62,0,0,1-.58.83c-.26.33-.6.72-1,1.17l-2.48,2.7Z"/><ellipse class="cls-1" cx="73.67" cy="176.75" rx="5.6" ry="5.62"/><ellipse class="cls-1" cx="37.29" cy="176.75" rx="5.6" ry="5.62"/><path class="cls-7" d="M79,62.84a15.13,15.13,0,0,1,0-30.25"/><path class="cls-2" d="M79,60.67a13,13,0,0,1,0-25.92"/><circle class="cls-7" cx="79.01" cy="33.67" r="1.08"/><circle class="cls-7" cx="79.01" cy="61.75" r="1.08"/><ellipse class="cls-4" cx="60.6" cy="77.64" rx="30.17" ry="30.25"/><ellipse class="cls-4" cx="69.4" cy="77.64" rx="30.17" ry="30.25"/><rect class="cls-2" x="79.01" y="34.75" width="3.68" height="14.21"/><path class="cls-1" d="M14.92,187a1.85,1.85,0,0,1-3.17,1.32,1.83,1.83,0,0,1-.54-1.33,1.78,1.78,0,0,1,.17-.79,1.83,1.83,0,0,1,.5-.64A1.79,1.79,0,0,1,13,185.1a1.85,1.85,0,0,1,.78.17,1.74,1.74,0,0,1,.79.68A1.8,1.8,0,0,1,14.92,187Zm-1.87-1.6a1.48,1.48,0,0,0-1.09.47,1.58,1.58,0,0,0-.45,1.12A1.61,1.61,0,0,0,12,188.1a1.52,1.52,0,0,0,2.2,0,1.58,1.58,0,0,0,.46-1.13,1.68,1.68,0,0,0-.18-.74,1.53,1.53,0,0,0-.47-.56A1.51,1.51,0,0,0,13.05,185.37Zm.84.72-.05.44,0,0,0,0a.94.94,0,0,0-.67-.27.74.74,0,0,0-.54.22.85.85,0,0,0-.2.58.69.69,0,0,0,.2.53.77.77,0,0,0,.57.19.84.84,0,0,0,.54-.18l0,0,0,0-.05.47h0a2,2,0,0,1-.58.11,1.13,1.13,0,0,1-.81-.3A1.06,1.06,0,0,1,12,187a1.1,1.1,0,0,1,.32-.82,1.07,1.07,0,0,1,.81-.33,1.42,1.42,0,0,1,.77.24Z"/><path class="cls-1" d="M17.42,188.27l-.06.49H15l1.43-1.57.36-.41c.08-.1.15-.18.18-.23a.77.77,0,0,0,.1-.38.85.85,0,0,0,0-.23.55.55,0,0,0-.3-.3,1,1,0,0,0-.25,0,.67.67,0,0,0-.26.05.36.36,0,0,0-.19.13.73.73,0,0,0-.13.23,1.49,1.49,0,0,0-.06.34h-.5a1.52,1.52,0,0,1,.22-.79,1.21,1.21,0,0,1,1.72-.15,1,1,0,0,1,.3.76,1.12,1.12,0,0,1-.12.53,1.68,1.68,0,0,1-.2.28c-.08.11-.2.24-.33.39l-.83.9Z"/><path class="cls-1" d="M20.66,186.68a3.37,3.37,0,0,1-.13.93,2.22,2.22,0,0,1-.34.74,1.06,1.06,0,0,1-.89.46,1,1,0,0,1-.83-.42,1.87,1.87,0,0,1-.31-1.15,2.68,2.68,0,0,1,.41-1.51,1.19,1.19,0,0,1,1-.61.91.91,0,0,1,.8.43A1.91,1.91,0,0,1,20.66,186.68Zm-.51,0a1.64,1.64,0,0,0-.16-.77.49.49,0,0,0-.43-.28c-.25,0-.46.17-.63.49a2.64,2.64,0,0,0-.25,1.21,1.57,1.57,0,0,0,.15.76.49.49,0,0,0,.44.28.68.68,0,0,0,.58-.4,1.86,1.86,0,0,0,.21-.58A2.94,2.94,0,0,0,20.15,186.65Z"/><path class="cls-1" d="M22.86,185.18l-.44,3.58h-.53l.38-3.09h-.7l.24-.49Z"/><path class="cls-1" d="M25.85,186.85a1,1,0,0,1,.5.89,1,1,0,0,1-.32.77,1.3,1.3,0,0,1-1.65,0,1,1,0,0,1-.32-.76,1,1,0,0,1,.69-1,.85.85,0,0,1-.41-.73.88.88,0,0,1,.29-.68,1.09,1.09,0,0,1,.76-.27,1,1,0,0,1,.72.26.9.9,0,0,1,.27.68,1,1,0,0,1,0,.26,1,1,0,0,1-.09.21.69.69,0,0,1-.17.17A.7.7,0,0,1,25.85,186.85Zm0,.84a.5.5,0,0,0-.17-.41.6.6,0,0,0-.44-.16.64.64,0,0,0-.46.17.62.62,0,0,0-.18.46.57.57,0,0,0,.17.42.64.64,0,0,0,.45.17.6.6,0,0,0,.45-.18A.66.66,0,0,0,25.83,187.69Zm0-1.61a.46.46,0,0,0-.14-.34.49.49,0,0,0-.36-.14.5.5,0,0,0-.37.15.46.46,0,0,0-.15.36.48.48,0,0,0,.14.34.52.52,0,0,0,.35.13.56.56,0,0,0,.38-.14A.46.46,0,0,0,25.87,186.08Z"/><path class="cls-1" d="M31.9,185.18,31.43,189l-2.17-2.78L29,188.76h-.53l.46-3.78,2.17,2.78.32-2.58Z"/><path class="cls-1" d="M34.66,186.58l-.27,2.18h-.51l0-.23a1,1,0,0,1-.69.28.9.9,0,0,1-.7-.29,1.09,1.09,0,0,1-.28-.76,1.26,1.26,0,0,1,.32-.89,1.05,1.05,0,0,1,.81-.35,1,1,0,0,1,.4.08,1.23,1.23,0,0,1,.34.26l0-.28Zm-.63,1a.65.65,0,0,0-.16-.47.54.54,0,0,0-.43-.19.62.62,0,0,0-.49.23.8.8,0,0,0-.19.55.7.7,0,0,0,.16.48.54.54,0,0,0,.42.18.65.65,0,0,0,.49-.23A.85.85,0,0,0,34,187.61Z"/><path class="cls-1" d="M35.88,186.58l0,.2a1,1,0,0,1,.61-.26.69.69,0,0,1,.51.18.63.63,0,0,1,.19.49,3.28,3.28,0,0,1,0,.4L37,188.76h-.51l.16-1.28s0-.09,0-.13v-.1c0-.2-.1-.3-.32-.3a.52.52,0,0,0-.34.12.76.76,0,0,0-.17.23s0,.11,0,.18,0,.14,0,.23l-.13,1H35.1l.27-2.18Z"/><path class="cls-1" d="M40.12,186.58l-.27,2.18h-.51l0-.23a1,1,0,0,1-.68.28.89.89,0,0,1-.7-.29,1.05,1.05,0,0,1-.28-.76,1.3,1.3,0,0,1,.31-.89,1.09,1.09,0,0,1,.82-.35,1,1,0,0,1,.4.08,1.23,1.23,0,0,1,.34.26l0-.28Zm-.62,1a.66.66,0,0,0-.17-.47.53.53,0,0,0-.43-.19.62.62,0,0,0-.48.23.8.8,0,0,0-.19.55.7.7,0,0,0,.16.48.54.54,0,0,0,.42.18.63.63,0,0,0,.48-.23A.81.81,0,0,0,39.5,187.61Z"/><path class="cls-1" d="M45.74,184.84l.3,3.92h-.51l-.16-2.28L44,189l-.77-2.53-.72,2.28H42l1.24-3.84.91,2.94Z"/><path class="cls-1" d="M49.05,186.58l-.26,2.18h-.52l0-.23a1,1,0,0,1-.68.28.89.89,0,0,1-.7-.29,1.05,1.05,0,0,1-.28-.76,1.3,1.3,0,0,1,.31-.89,1.09,1.09,0,0,1,.82-.35,1,1,0,0,1,.4.08,1.23,1.23,0,0,1,.34.26l0-.28Zm-.62,1a.66.66,0,0,0-.17-.47.53.53,0,0,0-.43-.19.62.62,0,0,0-.48.23.8.8,0,0,0-.19.55.7.7,0,0,0,.16.48.54.54,0,0,0,.42.18.63.63,0,0,0,.48-.23A.81.81,0,0,0,48.43,187.61Z"/><path class="cls-1" d="M50.26,187.05l-.21,1.71h-.51l.21-1.71h-.29l0-.47h.29l.13-1h.51l-.12,1h.47l-.06.47Z"/><path class="cls-1" d="M52.46,186.82l-.29.29a.6.6,0,0,0-.38-.19.32.32,0,0,0-.19.07.21.21,0,0,0-.08.16.19.19,0,0,0,.07.16,1.05,1.05,0,0,0,.27.19,1.38,1.38,0,0,1,.39.3.54.54,0,0,1,.11.35.62.62,0,0,1-.22.5.88.88,0,0,1-.57.18,1,1,0,0,1-.8-.43l.34-.24a.57.57,0,0,0,.44.25.28.28,0,0,0,.21-.07.19.19,0,0,0,.08-.18.23.23,0,0,0-.06-.16l-.12-.08a1.83,1.83,0,0,0-.22-.13,1.14,1.14,0,0,1-.34-.26.68.68,0,0,1,.12-.83.82.82,0,0,1,.56-.2A1,1,0,0,1,52.46,186.82Z"/><path class="cls-1" d="M55,186.58l-.16,1.27a1.78,1.78,0,0,1,0,.28.52.52,0,0,1-.06.2.63.63,0,0,1-.21.28,1.07,1.07,0,0,1-.69.2.93.93,0,0,1-.64-.2.71.71,0,0,1-.24-.56v-.13s0-.1,0-.16l.15-1.18h.51l-.15,1.22c0,.06,0,.1,0,.14v.1c0,.23.13.35.4.35a.42.42,0,0,0,.33-.12.76.76,0,0,0,.14-.4l.16-1.29Z"/><path class="cls-1" d="M57.81,187.65a1.14,1.14,0,0,1-.34.84,1.29,1.29,0,0,1-1.72,0,1.08,1.08,0,0,1-.34-.82,1.15,1.15,0,0,1,.35-.85,1.24,1.24,0,0,1,.88-.34,1.18,1.18,0,0,1,.85.32A1.09,1.09,0,0,1,57.81,187.65Zm-.51,0a.7.7,0,0,0-.18-.5.69.69,0,0,0-.48-.19.66.66,0,0,0-.51.21.76.76,0,0,0-.21.54.74.74,0,0,0,.19.52.68.68,0,0,0,1,0A.84.84,0,0,0,57.3,187.62Z"/><path class="cls-1" d="M59.25,184.84l-.31,2.59.91-.85h.69l-1.15,1,.92,1.19h-.62l-.79-1-.13,1h-.51l.48-3.92Z"/><path class="cls-1" d="M63.12,186.58l-.27,2.18h-.52l0-.23a1,1,0,0,1-.68.28.89.89,0,0,1-.7-.29,1.05,1.05,0,0,1-.28-.76,1.26,1.26,0,0,1,.32-.89,1.05,1.05,0,0,1,.81-.35,1,1,0,0,1,.4.08,1.23,1.23,0,0,1,.34.26l0-.28Zm-.63,1a.65.65,0,0,0-.16-.47.56.56,0,0,0-.44-.19.62.62,0,0,0-.48.23.8.8,0,0,0-.19.55.7.7,0,0,0,.16.48.54.54,0,0,0,.42.18.65.65,0,0,0,.49-.23A.85.85,0,0,0,62.49,187.61Z"/><path class="cls-1" d="M66.21,187a.49.49,0,0,1-.49.49.49.49,0,0,1,0-1A.49.49,0,0,1,66.21,187Z"/><path class="cls-1" d="M72,184.84l.3,3.92H71.8l-.16-2.28L70.26,189l-.77-2.53-.71,2.28h-.55l1.24-3.84.91,2.94Z"/><path class="cls-1" d="M75.33,186.58l-.27,2.18h-.52l0-.23a1,1,0,0,1-.68.28.9.9,0,0,1-.7-.29,1.09,1.09,0,0,1-.28-.76,1.26,1.26,0,0,1,.32-.89,1.05,1.05,0,0,1,.81-.35,1,1,0,0,1,.4.08,1.23,1.23,0,0,1,.34.26l0-.28Zm-.63,1a.65.65,0,0,0-.16-.47.56.56,0,0,0-.44-.19.62.62,0,0,0-.48.23.8.8,0,0,0-.19.55.7.7,0,0,0,.16.48.54.54,0,0,0,.42.18.65.65,0,0,0,.49-.23A.85.85,0,0,0,74.7,187.61Z"/><path class="cls-1" d="M77.34,186.82l-.29.29a.6.6,0,0,0-.38-.19.29.29,0,0,0-.19.07.21.21,0,0,0-.08.16.19.19,0,0,0,.07.16,1.05,1.05,0,0,0,.27.19,1.38,1.38,0,0,1,.39.3.54.54,0,0,1,.11.35.65.65,0,0,1-.22.5.88.88,0,0,1-.57.18,1,1,0,0,1-.8-.43l.34-.24a.57.57,0,0,0,.44.25.28.28,0,0,0,.21-.07.19.19,0,0,0,.08-.18.23.23,0,0,0-.06-.16l-.12-.08a1.83,1.83,0,0,0-.22-.13,1.14,1.14,0,0,1-.34-.26.68.68,0,0,1,.12-.83.82.82,0,0,1,.56-.2A1,1,0,0,1,77.34,186.82Z"/><path class="cls-1" d="M80.1,186.58l-.27,2.18h-.51l0-.23a1,1,0,0,1-.68.28.91.91,0,0,1-.71-.29,1.09,1.09,0,0,1-.27-.76,1.25,1.25,0,0,1,.31-.89,1.05,1.05,0,0,1,.81-.35,1,1,0,0,1,.4.08,1.1,1.1,0,0,1,.34.26l0-.28Zm-.63,1a.65.65,0,0,0-.16-.47.54.54,0,0,0-.43-.19.64.64,0,0,0-.49.23.85.85,0,0,0-.19.55.7.7,0,0,0,.16.48.54.54,0,0,0,.42.18.65.65,0,0,0,.49-.23A.8.8,0,0,0,79.47,187.61Z"/><path class="cls-1" d="M81.34,186.58l0,.2a.83.83,0,0,1,.6-.26.58.58,0,0,1,.32.08.54.54,0,0,1,.19.27,1,1,0,0,1,.7-.35c.44,0,.65.2.65.6a1.16,1.16,0,0,1,0,.17,1.57,1.57,0,0,1,0,.27l-.14,1.2h-.52l.16-1.26c0-.12,0-.21,0-.26A.25.25,0,0,0,83,187a.38.38,0,0,0-.19,0,.24.24,0,0,0-.14.1.52.52,0,0,0-.1.18,1.07,1.07,0,0,0-.06.27l-.15,1.22h-.51l.16-1.29c0-.12,0-.2,0-.25s-.1-.27-.29-.27-.45.2-.5.59l-.15,1.22h-.52l.27-2.18Z"/><path class="cls-1" d="M85.09,186.58l-.27,2.18h-.51l.27-2.18Zm.16-1a.29.29,0,0,1-.08.19.3.3,0,0,1-.2.08.27.27,0,0,1-.19-.08.28.28,0,0,1-.08-.21.26.26,0,0,1,.07-.19.3.3,0,0,1,.2-.08.25.25,0,0,1,.19.09A.25.25,0,0,1,85.25,185.54Z"/><path class="cls-1" d="M90.84,186.9a2,2,0,0,1-.33,1.11,1.71,1.71,0,0,1-.67.61,2,2,0,0,1-.92.21,1.78,1.78,0,0,1-1.31-.51,2,2,0,0,1,0-2.68,1.85,1.85,0,0,1,1.36-.53,1.8,1.8,0,0,1,1.33.49A1.72,1.72,0,0,1,90.84,186.9Zm-.54,0A1.21,1.21,0,0,0,89,185.6a1.38,1.38,0,0,0-1,.4,1.45,1.45,0,0,0,0,2,1.24,1.24,0,0,0,.93.38,1.29,1.29,0,0,0,1-.41A1.45,1.45,0,0,0,90.3,186.9Z"/><path class="cls-1" d="M93.67,186.58l-.27,2.2c0,.13,0,.25-.06.34a1.26,1.26,0,0,1-.07.25.85.85,0,0,1-.24.35,1.14,1.14,0,0,1-.81.28,1.21,1.21,0,0,1-.82-.27.68.68,0,0,1-.23-.31,1,1,0,0,1-.07-.44h.5a.62.62,0,0,0,.16.45.58.58,0,0,0,.43.14.65.65,0,0,0,.48-.17.9.9,0,0,0,.21-.53l0-.3a1.11,1.11,0,0,1-.68.24,1,1,0,0,1-.73-.3,1.08,1.08,0,0,1-.29-.78,1.2,1.2,0,0,1,.33-.86,1.15,1.15,0,0,1,.85-.35,1,1,0,0,1,.39.07,1.1,1.1,0,0,1,.34.26l0-.27Zm-.59,1a.64.64,0,0,0-.18-.47.61.61,0,0,0-.47-.19.69.69,0,0,0-.51.22.83.83,0,0,0-.2.56.7.7,0,0,0,.17.48.62.62,0,0,0,.46.18.69.69,0,0,0,.52-.22A.78.78,0,0,0,93.08,187.61Z"/><path class="cls-1" d="M96.53,186.58l-.27,2.18h-.51l0-.23a1,1,0,0,1-.69.28.9.9,0,0,1-.7-.29,1.09,1.09,0,0,1-.28-.76,1.26,1.26,0,0,1,.32-.89,1.05,1.05,0,0,1,.81-.35,1,1,0,0,1,.4.08,1.23,1.23,0,0,1,.34.26l0-.28Zm-.63,1a.65.65,0,0,0-.16-.47.54.54,0,0,0-.43-.19.62.62,0,0,0-.49.23.8.8,0,0,0-.19.55.7.7,0,0,0,.16.48.54.54,0,0,0,.42.18.65.65,0,0,0,.49-.23A.85.85,0,0,0,95.9,187.61Z"/><path class="cls-1" d="M98.54,186.82l-.29.29a.6.6,0,0,0-.38-.19.32.32,0,0,0-.19.07.21.21,0,0,0-.08.16.19.19,0,0,0,.07.16,1.05,1.05,0,0,0,.27.19,1.38,1.38,0,0,1,.39.3.54.54,0,0,1,.11.35.62.62,0,0,1-.22.5.86.86,0,0,1-.57.18.93.93,0,0,1-.79-.43l.33-.24a.58.58,0,0,0,.44.25.28.28,0,0,0,.21-.07.19.19,0,0,0,.08-.18.23.23,0,0,0-.06-.16l-.12-.08a1.27,1.27,0,0,0-.22-.13,1.29,1.29,0,0,1-.34-.26.68.68,0,0,1,.12-.83.82.82,0,0,1,.56-.2A1,1,0,0,1,98.54,186.82Z"/><path class="cls-1" d="M101.3,186.58l-.27,2.18h-.51l0-.23a1,1,0,0,1-.68.28.91.91,0,0,1-.71-.29,1.09,1.09,0,0,1-.27-.76,1.25,1.25,0,0,1,.31-.89,1.05,1.05,0,0,1,.81-.35,1,1,0,0,1,.4.08,1.1,1.1,0,0,1,.34.26l0-.28Zm-.62,1a.66.66,0,0,0-.17-.47.54.54,0,0,0-.43-.19.62.62,0,0,0-.48.23.81.81,0,0,0-.2.55.75.75,0,0,0,.16.48.54.54,0,0,0,.42.18.65.65,0,0,0,.49-.23A.81.81,0,0,0,100.68,187.61Z"/><path class="cls-1" d="M105.07,186.58l-1.4,2.41-.44-1.41-.78,1.41-.79-2.41h.53l.39,1.33.78-1.39.41,1.39.72-1.33Z"/><path class="cls-1" d="M107.61,186.58l-.27,2.18h-.51l0-.23a1,1,0,0,1-.69.28.9.9,0,0,1-.7-.29,1.09,1.09,0,0,1-.28-.76,1.26,1.26,0,0,1,.32-.89,1.05,1.05,0,0,1,.81-.35,1,1,0,0,1,.4.08,1.23,1.23,0,0,1,.34.26l0-.28Zm-.63,1a.65.65,0,0,0-.16-.47.54.54,0,0,0-.43-.19.62.62,0,0,0-.49.23.8.8,0,0,0-.19.55.7.7,0,0,0,.16.48.54.54,0,0,0,.42.18.65.65,0,0,0,.49-.23A.85.85,0,0,0,107,187.61Z"/><path class="cls-1" d="M108.83,186.58l0,.18a.77.77,0,0,1,.52-.24.6.6,0,0,1,.43.17l-.33.42a.43.43,0,0,0-.28-.12.29.29,0,0,0-.17,0,.25.25,0,0,0-.13.12.51.51,0,0,0-.09.21,1.31,1.31,0,0,0-.06.31l-.13,1.09h-.52l.27-2.18Z"/><path class="cls-1" d="M112.28,186.58l-.27,2.18h-.51l0-.23a1,1,0,0,1-.69.28.9.9,0,0,1-.7-.29,1.09,1.09,0,0,1-.28-.76,1.26,1.26,0,0,1,.32-.89,1.05,1.05,0,0,1,.81-.35,1,1,0,0,1,.4.08,1.23,1.23,0,0,1,.34.26l0-.28Zm-.63,1a.65.65,0,0,0-.16-.47.54.54,0,0,0-.43-.19.62.62,0,0,0-.49.23.8.8,0,0,0-.19.55.7.7,0,0,0,.16.48.54.54,0,0,0,.42.18.65.65,0,0,0,.49-.23A.85.85,0,0,0,111.65,187.61Z"/><rect class="cls-2" x="79.01" y="34.75" width="6.37" height="12.64"/><path class="cls-1" d="M45.31,125h1.45a2.77,2.77,0,0,1,1.45.31,1.71,1.71,0,0,1,.63.72,2.24,2.24,0,0,1,.24,1,2.29,2.29,0,0,1-.43,1.36,2.34,2.34,0,0,1-2,.87h-.78l-.36,2.9H44.43Zm.94,1L46,128.3h.69a1.43,1.43,0,0,0,1-.33,1.32,1.32,0,0,0,.35-1c0-.68-.44-1-1.31-1Z"/><path class="cls-1" d="M54.4,129.92a2.26,2.26,0,0,1-.7,1.69,2.33,2.33,0,0,1-1.7.68,2.38,2.38,0,0,1-1.73-.65,2.18,2.18,0,0,1-.68-1.64,2.23,2.23,0,0,1,.7-1.69,2.41,2.41,0,0,1,1.76-.68,2.29,2.29,0,0,1,1.69.64A2.18,2.18,0,0,1,54.4,129.92Zm-1,0a1.37,1.37,0,0,0-.37-1,1.27,1.27,0,0,0-1-.38,1.36,1.36,0,0,0-1,.42,1.5,1.5,0,0,0-.4,1.07A1.45,1.45,0,0,0,51,131a1.27,1.27,0,0,0,1,.4,1.24,1.24,0,0,0,1-.44A1.57,1.57,0,0,0,53.37,129.87Z"/><path class="cls-1" d="M56.8,128.73l-.42,3.42h-1l.42-3.42H55.2l.12-1h.58l.25-2h1l-.25,2h.95l-.12,1Z"/><path class="cls-1" d="M62.89,127.77l-.54,4.38h-1l.06-.48a2,2,0,0,1-1.36.58,1.83,1.83,0,0,1-1.41-.59,2.13,2.13,0,0,1-.55-1.53,2.56,2.56,0,0,1,.62-1.77,2.13,2.13,0,0,1,1.63-.69,1.94,1.94,0,0,1,.8.15,2.21,2.21,0,0,1,.68.53l.07-.58Zm-1.24,2.07a1.36,1.36,0,0,0-.34-1,1.12,1.12,0,0,0-.86-.36,1.22,1.22,0,0,0-1,.45,1.64,1.64,0,0,0-.39,1.11,1.39,1.39,0,0,0,.32.94,1.07,1.07,0,0,0,.84.37,1.25,1.25,0,0,0,1-.46A1.59,1.59,0,0,0,61.65,129.84Z"/><path class="cls-1" d="M66.92,128.26l-.58.58a1.15,1.15,0,0,0-.75-.37.56.56,0,0,0-.39.13.41.41,0,0,0-.16.33.42.42,0,0,0,.13.32,2.7,2.7,0,0,0,.54.36,2.31,2.31,0,0,1,.79.61,1.1,1.1,0,0,1,.21.7,1.26,1.26,0,0,1-.43,1,1.73,1.73,0,0,1-1.14.37,1.9,1.9,0,0,1-1.59-.87l.67-.47a1.18,1.18,0,0,0,.88.5.65.65,0,0,0,.43-.14.5.5,0,0,0,.16-.36.42.42,0,0,0-.14-.32,1.5,1.5,0,0,0-.23-.17,4.56,4.56,0,0,0-.44-.25,2.26,2.26,0,0,1-.68-.54A1.18,1.18,0,0,1,64,129a1.27,1.27,0,0,1,.44-1,1.6,1.6,0,0,1,1.11-.39A1.88,1.88,0,0,1,66.92,128.26Z"/><path class="cls-1" d="M70.75,128.26l-.57.58a1.19,1.19,0,0,0-.76-.37.56.56,0,0,0-.39.13.41.41,0,0,0-.16.33.46.46,0,0,0,.13.32,2.56,2.56,0,0,0,.55.36,2.35,2.35,0,0,1,.78.61,1.1,1.1,0,0,1,.22.7,1.27,1.27,0,0,1-.44,1,1.73,1.73,0,0,1-1.14.37,1.9,1.9,0,0,1-1.59-.87l.67-.47a1.18,1.18,0,0,0,.88.5.65.65,0,0,0,.43-.14.5.5,0,0,0,.16-.36.42.42,0,0,0-.14-.32l-.22-.17-.44-.25a2.2,2.2,0,0,1-.69-.54,1.18,1.18,0,0,1-.19-.67,1.27,1.27,0,0,1,.44-1,1.6,1.6,0,0,1,1.11-.39A1.88,1.88,0,0,1,70.75,128.26Z"/><path class="cls-1" d="M73,127.77l-.54,4.38h-1l.54-4.38Zm.32-2.08a.54.54,0,0,1-.17.39.5.5,0,0,1-.39.16.54.54,0,0,1-.39-.17.55.55,0,0,1-.16-.4.53.53,0,0,1,.16-.39.49.49,0,0,1,.38-.16.6.6,0,0,1,.57.57Z"/><path class="cls-1" d="M78.19,127.77l-.31,2.55a3.69,3.69,0,0,1-.21,1,1.4,1.4,0,0,1-.43.55,2.19,2.19,0,0,1-1.37.41,1.94,1.94,0,0,1-1.29-.41,1.41,1.41,0,0,1-.48-1.12,2.26,2.26,0,0,1,0-.25c0-.1,0-.21,0-.33l.28-2.37h1l-.3,2.46a1.58,1.58,0,0,0,0,.28,1.42,1.42,0,0,0,0,.19c0,.47.27.7.81.7a.86.86,0,0,0,.65-.23,1.48,1.48,0,0,0,.28-.8l.32-2.6Z"/><path class="cls-1" d="M80.69,127.77l0,.41a1.65,1.65,0,0,1,1.2-.52,1.14,1.14,0,0,1,.64.15,1.24,1.24,0,0,1,.39.55,1.92,1.92,0,0,1,1.4-.69c.87,0,1.3.39,1.3,1.19,0,.08,0,.19,0,.34s0,.32-.06.54l-.29,2.41h-1l.32-2.53c0-.24,0-.41,0-.52a.51.51,0,0,0-.58-.57,1.14,1.14,0,0,0-.39.06.74.74,0,0,0-.28.21,1.18,1.18,0,0,0-.2.37,3.12,3.12,0,0,0-.12.54l-.29,2.44h-1l.32-2.6a4,4,0,0,0,0-.48c0-.36-.19-.54-.59-.54-.56,0-.9.39-1,1.18l-.3,2.44h-1l.54-4.38Z"/><path class="cls-1" d="M33.62,158.24l-.76,6.19h2l-.12,1H31.68l.88-7.18Z"/><path class="cls-1" d="M40.45,161l-.54,4.38h-1l.06-.48a2.05,2.05,0,0,1-1.37.58,1.86,1.86,0,0,1-1.41-.59,2.19,2.19,0,0,1-.55-1.53,2.52,2.52,0,0,1,.63-1.77,2.09,2.09,0,0,1,1.63-.7,1.74,1.74,0,0,1,.79.16,2.1,2.1,0,0,1,.68.53l.07-.58ZM39.2,163.1a1.35,1.35,0,0,0-.33-.94,1.09,1.09,0,0,0-.86-.37,1.23,1.23,0,0,0-1,.45,1.68,1.68,0,0,0-.39,1.12,1.35,1.35,0,0,0,.33.94,1,1,0,0,0,.83.37,1.3,1.3,0,0,0,1-.46A1.64,1.64,0,0,0,39.2,163.1Z"/><path class="cls-1" d="M45.1,161.46l-.13,1a2.29,2.29,0,0,0-.6-.58,1.22,1.22,0,0,0-.67-.17,1.2,1.2,0,0,0-1,.43,1.64,1.64,0,0,0-.38,1.11,1.44,1.44,0,0,0,.35,1,1.2,1.2,0,0,0,.92.39,1.83,1.83,0,0,0,1.13-.47l-.14,1.08a3,3,0,0,1-1.13.24,2,2,0,0,1-1.56-.62,2.26,2.26,0,0,1-.6-1.63,2.41,2.41,0,0,1,.65-1.71,2.12,2.12,0,0,1,1.61-.69A2.35,2.35,0,0,1,45.1,161.46Z"/><path class="cls-1" d="M47.21,162l-.42,3.43h-1l.42-3.43H45.6l.12-1h.58l.25-2h1l-.25,2h1l-.12,1Z"/><path class="cls-1" d="M50,161l-.53,4.38h-1L49,161Zm.32-2.08a.49.49,0,0,1-.16.38.53.53,0,0,1-.78,0,.57.57,0,0,1-.16-.4.54.54,0,0,1,.15-.39.53.53,0,0,1,.39-.16.5.5,0,0,1,.39.17A.51.51,0,0,1,50.35,159Z"/><path class="cls-1" d="M54.69,161.46l-.13,1a2.29,2.29,0,0,0-.6-.58,1.33,1.33,0,0,0-1.63.26A1.64,1.64,0,0,0,52,163.3a1.4,1.4,0,0,0,.35,1,1.19,1.19,0,0,0,.92.39,1.81,1.81,0,0,0,1.12-.47l-.13,1.08a3,3,0,0,1-1.13.24,2,2,0,0,1-1.56-.62,2.26,2.26,0,0,1-.6-1.63,2.4,2.4,0,0,1,.64-1.71,2.12,2.12,0,0,1,1.61-.69A2.38,2.38,0,0,1,54.69,161.46Z"/><path class="cls-1" d="M59.8,163.73l-.87,1.69H57.78l4-7.69,2.47,7.69H63.1l-.52-1.69Zm.46-.92h2l-.77-2.55Z"/><path class="cls-1" d="M68.67,161.46l-.13,1a2.29,2.29,0,0,0-.6-.58,1.33,1.33,0,0,0-1.63.26,1.64,1.64,0,0,0-.38,1.11,1.4,1.4,0,0,0,.36,1,1.17,1.17,0,0,0,.92.39,1.83,1.83,0,0,0,1.12-.47l-.13,1.08a3.07,3.07,0,0,1-1.14.24,2.08,2.08,0,0,1-1.56-.62,2.3,2.3,0,0,1-.59-1.63,2.4,2.4,0,0,1,.64-1.71,2.12,2.12,0,0,1,1.61-.69A2.38,2.38,0,0,1,68.67,161.46Z"/><path class="cls-1" d="M70.81,161l-.53,4.38h-1l.54-4.38Zm.32-2.08a.49.49,0,0,1-.16.38.53.53,0,0,1-.78,0,.57.57,0,0,1-.16-.4.54.54,0,0,1,.15-.39.53.53,0,0,1,.39-.16.5.5,0,0,1,.39.17A.51.51,0,0,1,71.13,159Z"/><path class="cls-1" d="M77.06,157.57l-1,7.85h-1l.06-.47a3.08,3.08,0,0,1-.66.46,1.9,1.9,0,0,1-.68.11,2,2,0,0,1-1.5-.61,2.2,2.2,0,0,1-.58-1.58,2.37,2.37,0,0,1,.64-1.71,2.08,2.08,0,0,1,1.6-.69,1.93,1.93,0,0,1,.84.17,2.68,2.68,0,0,1,.73.6l.51-4.13ZM75.38,163a1.22,1.22,0,0,0-.35-.9,1.19,1.19,0,0,0-.9-.35,1.25,1.25,0,0,0-1,.45,1.68,1.68,0,0,0-.4,1.14,1.29,1.29,0,0,0,.34.93,1.18,1.18,0,0,0,.9.35,1.24,1.24,0,0,0,1-.47A1.69,1.69,0,0,0,75.38,163Z"/><path class="cls-1" d="M81.56,158.24h1.32a3.17,3.17,0,0,1,1,.14,1.5,1.5,0,0,1,.64.45,1.87,1.87,0,0,1,.42,1.23,1.8,1.8,0,0,1-1,1.65,1.5,1.5,0,0,1,1.26,1.59,2.24,2.24,0,0,1-.22,1,1.76,1.76,0,0,1-.6.74,1.62,1.62,0,0,1-.68.31l-.47,0a6,6,0,0,1-.65,0H80.68Zm.57,4-.27,2.2h.71a2.18,2.18,0,0,0,1.1-.2,1.13,1.13,0,0,0,.45-1,1.25,1.25,0,0,0-.08-.45.67.67,0,0,0-.24-.31,1,1,0,0,0-.42-.18,3.49,3.49,0,0,0-.61-.05Zm.36-3-.26,2.15h.3c.91,0,1.37-.43,1.37-1.27,0-.59-.35-.88-1-.88Z"/><path class="cls-1" d="M90.88,161l-.53,4.38h-1l.06-.48a2,2,0,0,1-1.36.58,1.83,1.83,0,0,1-1.41-.59,2.14,2.14,0,0,1-.55-1.53,2.52,2.52,0,0,1,.63-1.77,2.07,2.07,0,0,1,1.62-.7,1.78,1.78,0,0,1,.8.16,2.21,2.21,0,0,1,.68.53l.07-.58Zm-1.24,2.06a1.31,1.31,0,0,0-.34-.94,1.09,1.09,0,0,0-.86-.37,1.22,1.22,0,0,0-1,.45,1.68,1.68,0,0,0-.39,1.12,1.39,1.39,0,0,0,.32.94,1.07,1.07,0,0,0,.84.37,1.28,1.28,0,0,0,1-.46A1.6,1.6,0,0,0,89.64,163.1Z"/><path class="cls-1" d="M95.54,161.46l-.13,1a2.29,2.29,0,0,0-.6-.58,1.33,1.33,0,0,0-1.63.26,1.64,1.64,0,0,0-.37,1.11,1.4,1.4,0,0,0,.35,1,1.19,1.19,0,0,0,.92.39,1.81,1.81,0,0,0,1.12-.47l-.13,1.08a3.06,3.06,0,0,1-1.13.24,2,2,0,0,1-1.56-.62,2.26,2.26,0,0,1-.6-1.63,2.4,2.4,0,0,1,.64-1.71A2.12,2.12,0,0,1,94,160.9,2.38,2.38,0,0,1,95.54,161.46Z"/><path class="cls-1" d="M97.64,162l-.42,3.43h-1l.42-3.43H96l.12-1h.57l.26-2h1l-.25,2h.94l-.11,1Z"/><path class="cls-1" d="M100,163.59a1,1,0,0,0,.33.8,1.23,1.23,0,0,0,.86.31,1.29,1.29,0,0,0,1.11-.54l.76.42a2.5,2.5,0,0,1-.82.76,2.38,2.38,0,0,1-1.06.21,2.05,2.05,0,0,1-2.22-2.2,2.46,2.46,0,0,1,.66-1.75,2.17,2.17,0,0,1,1.66-.7,2,2,0,0,1,1.54.63,2.44,2.44,0,0,1,.57,1.7c0,.08,0,.2,0,.36Zm2.35-.82a1,1,0,0,0-1.12-1,1.15,1.15,0,0,0-1.17,1Z"/><path class="cls-1" d="M105.8,161l0,.38a1.56,1.56,0,0,1,1-.5,1.25,1.25,0,0,1,.84.34l-.65.85a.89.89,0,0,0-.57-.24.65.65,0,0,0-.6.31,1.74,1.74,0,0,0-.18.43,4.12,4.12,0,0,0-.11.62l-.27,2.19h-1l.53-4.38Z"/><path class="cls-1" d="M109.42,161l-.54,4.38h-1l.54-4.38Zm.32-2.08a.49.49,0,0,1-.16.38.54.54,0,0,1-.39.17.58.58,0,0,1-.4-.17.61.61,0,0,1-.16-.4.55.55,0,0,1,.16-.39.52.52,0,0,1,.38-.16.51.51,0,0,1,.4.17A.54.54,0,0,1,109.74,159Z"/><path class="cls-1" d="M115.13,161l-.53,4.38h-1l.06-.48a2,2,0,0,1-1.36.58,1.83,1.83,0,0,1-1.41-.59,2.14,2.14,0,0,1-.55-1.53,2.52,2.52,0,0,1,.63-1.77,2.07,2.07,0,0,1,1.62-.7,1.78,1.78,0,0,1,.8.16,2.21,2.21,0,0,1,.68.53l.07-.58Zm-1.24,2.06a1.31,1.31,0,0,0-.34-.94,1.09,1.09,0,0,0-.86-.37,1.22,1.22,0,0,0-1,.45,1.68,1.68,0,0,0-.39,1.12,1.39,1.39,0,0,0,.32.94,1.07,1.07,0,0,0,.84.37,1.28,1.28,0,0,0,1-.46A1.6,1.6,0,0,0,113.89,163.1Z"/><rect class="cls-2" x="54.11" y="171.13" width="11.21" height="11.24"/><ellipse class="cls-1" cx="59.71" cy="176.75" rx="5.6" ry="5.62"/><ellipse class="cls-2" cx="62.02" cy="174.44" rx="3.3" ry="3.3"/></svg>